<?xml version="1.0" encoding="iso-8859-1"?>
<!-- Uploaded to: SVG Repo, www.svgrepo.com, Generator: SVG Repo Mixer Tools -->
<svg height="800px" width="800px" version="1.1" id="Layer_1" xmlns="http://www.w3.org/2000/svg" xmlns:xlink="http://www.w3.org/1999/xlink" 
	 viewBox="0 0 512 512" xml:space="preserve">
<circle style="fill:#A0EBFF;" cx="256" cy="256" r="256"/>
<path style="fill:#C2D64A;" d="M438.211,210.156c-1.7-2.022-4.285-4.69-7.557-6.246c-1.633-0.86-3.415-1.219-5.233-1.147
	c-1.828,0.056-3.635,0.763-5.371,1.92c-1.695,1.244-3.323,2.918-4.746,5.048c-0.788,0.957-1.382,2.212-2.043,3.4l-1.823,3.302
	l-1.818,3.313l-1.782,2.243c-1.208,1.321-2.524,2.627-3.84,3.139c-0.63,0.43-1.295,0.563-1.935,0.645
	c-0.62,0.22-1.26,0.123-1.864,0.041c-1.203-0.092-2.345-0.686-3.364-1.316c-1.029-0.676-1.956-1.567-2.76-2.391
	c-0.435-0.502-0.824-0.973-1.178-1.428c-24.31-41.969-77.916-71.142-140.186-71.142c-25.37,0-49.285,4.869-70.39,13.445
	c-9.416-21.268-25.605-34.56-37.146-29.983c-12.093,4.797-14.469,27.392-5.315,50.458c0.492,1.239,1.019,2.447,1.556,3.64
	c-12.283,10.127-22.364,21.919-29.65,34.913l-20.122-3.86c-5.924-1.137-11.648,2.744-12.785,8.668l-7.455,38.866
	c-1.137,5.924,2.744,11.648,8.668,12.785l19.169,3.676c3.113,27.638,17.915,52.613,40.494,71.823
	c-0.942,2.488-1.807,5.069-2.54,7.762c-6.543,23.941-1.674,46.131,10.875,49.562c11.679,3.19,25.887-11.003,33.075-32.287
	c21.391,8.873,45.722,13.921,71.562,13.921s50.176-5.048,71.562-13.921c7.188,21.284,21.396,35.482,33.075,32.287
	c12.549-3.43,17.418-25.615,10.875-49.562c-0.737-2.688-1.597-5.274-2.54-7.762c25.518-21.714,41.144-50.78,41.144-82.739
	c0-9.103-1.306-17.961-3.707-26.496l0.875-0.215c1.029-0.312,2.053-0.701,2.975-1.439c0.968-0.609,1.9-1.331,2.703-2.345
	c1.761-1.766,3.123-4.168,4.449-6.82c0.604-1.408,1.213-2.831,1.828-4.255l1.275-4.157l1.28-4.152
	c0.389-1.26,0.732-2.637,1.234-3.666c0.881-2.34,1.94-4.275,3.092-5.908c1.188-1.531,2.478-2.744,3.866-3.384
	c1.382-0.655,2.821-0.952,4.234-0.712c2.816,0.302,5.386,1.956,7.122,3.374c1.751,1.444,2.719,2.627,2.719,2.627
	S439.921,212.209,438.211,210.156z"/>
<path style="fill:#A4B830;" d="M248.069,335.232c-65.393,0-121.876-20.516-148.413-50.227c3.789,26.491,18.304,50.406,40.095,68.951
	c-0.942,2.488-1.807,5.069-2.54,7.762c-6.543,23.941-1.674,46.131,10.875,49.562c11.679,3.19,25.887-11.003,33.075-32.287
	c21.391,8.873,45.722,13.921,71.562,13.921s50.176-5.048,71.562-13.921c7.188,21.284,21.396,35.482,33.075,32.287
	c12.549-3.43,17.418-25.615,10.875-49.562c-0.737-2.688-1.597-5.274-2.54-7.762c25.518-21.714,41.144-50.78,41.144-82.739
	l-0.041-1.132C387.743,307.63,323.917,335.232,248.069,335.232z"/>
<circle style="fill:#2D5872;" cx="157.43" cy="231.57" r="11.658"/>
<g>
	<path style="fill:#A4B830;" d="M75.192,245.99l-3.773,19.686c-1.137,5.924,2.744,11.648,8.668,12.785l19.169,3.676l0.072,0.522
		l4.951-31.324L75.192,245.99z"/>
	<path style="fill:#A4B830;" d="M212.06,189.517l-3.031-14.239c32.102-6.82,55.45-8.694,93.998,0.015l-3.215,14.208
		C263.91,181.376,242.089,183.142,212.06,189.517z"/>
</g>
<path style="fill:#D94000;" d="M210.514,182.252l1.546,7.265c30.024-6.38,51.85-8.141,87.757-0.015l1.644-7.26
	C264.458,174.07,241.408,175.785,210.514,182.252z"/>
<path style="fill:#A4B830;" d="M148.229,183.869c2.97-2.627,6.456-5.146,10.348-7.404c5.699-3.302,11.459-5.56,16.671-6.738
	c-5.565-15.764-16.461-26.291-24.361-23.511c-7.905,2.78-9.81,17.843-4.25,33.638C147.118,181.243,147.661,182.569,148.229,183.869z
	"/>
<g>
	<path style="fill:#EB9900;" d="M279.199,185.708c1.715,0.236,3.466,0.502,5.238,0.794c2.816-3.476,5.043-7.532,6.431-12.073
		l2.381-7.808C290.78,174.715,285.691,181.279,279.199,185.708z"/>
	<path style="fill:#EB9900;" d="M224.804,145.746L224.804,145.746L224.804,145.746l-2.381,7.808
		c-3.584,11.745-0.819,23.91,6.318,32.824c3.128-0.497,6.216-0.922,9.277-1.265C226.012,176.389,220.232,160.737,224.804,145.746z"
		/>
</g>
<g>
	<path style="fill:#FFF466;" d="M288.85,136.412c1.265,1.91,2.345,3.937,3.226,6.052
		C291.195,140.349,290.115,138.322,288.85,136.412z"/>
	<path style="fill:#FFF466;" d="M292.076,142.464c0.881,2.115,1.556,4.321,2.022,6.579
		C293.632,146.785,292.956,144.579,292.076,142.464z"/>
	<path style="fill:#FFF466;" d="M286.817,133.637c-1.444-1.787-3.067-3.436-4.849-4.931
		C283.75,130.202,285.373,131.85,286.817,133.637z"/>
	<path style="fill:#FFF466;" d="M251.612,175.084l1.403-4.598c-3.697-1.213-6.764-2.862-9.19-4.951l1.843-6.042
		c1.126,1.06,2.55,2.125,4.26,3.2c1.715,1.075,3.292,1.879,4.726,2.417l2.161-7.091l-1.352-1.06
		c-2.657-2.109-4.403-4.055-5.233-5.837c-0.835-1.777-0.937-3.697-0.307-5.755c0.676-2.212,2.094-3.768,4.26-4.664
		c2.166-0.896,4.844-1.029,8.033-0.389l1.065-3.502l1.51,0.461l1.766-5.786l0,0c-13.614-4.152-28.073,3.548-32.225,17.162
		c-4.152,13.619,3.548,28.073,17.162,32.225l0,0l1.628-5.335L251.612,175.084z"/>
	<path style="fill:#FFF466;" d="M258.847,151.357l1.638-5.376c-2.053-0.312-3.282,0.184-3.676,1.48
		c-0.205,0.671-0.138,1.295,0.189,1.869C257.331,149.908,257.951,150.584,258.847,151.357z"/>
	<path style="fill:#FFF466;" d="M230.431,147.456c4.808-15.77,21.55-24.684,37.32-19.876l0,0l1.715-5.627l0,0
		c-18.903-5.765-38.897,4.884-44.662,23.788l0,0c-4.572,14.991,1.208,30.643,13.215,39.368c3.594-0.404,7.173-0.701,10.772-0.876
		C233.984,178.836,225.777,162.708,230.431,147.456z"/>
</g>
<g>
	<path style="fill:#FDC00F;" d="M292.076,142.464c-0.881-2.115-1.961-4.142-3.226-6.052c-0.63-0.957-1.311-1.879-2.033-2.775
		c-1.444-1.787-3.067-3.436-4.849-4.931c-1.782-1.49-3.727-2.816-5.816-3.953c-2.089-1.137-4.321-2.079-6.687-2.801l0,0
		l-1.715,5.627c15.775,4.813,24.689,21.55,19.881,37.32c-2.939,9.631-10.332,16.681-19.231,19.635
		c3.487,0.266,7.081,0.655,10.803,1.167c6.487-4.429,11.581-10.993,14.049-19.092c1.802-5.908,2.002-11.919,0.845-17.572
		C293.632,146.785,292.956,144.579,292.076,142.464z"/>
	<path style="fill:#FDC00F;" d="M266.557,131.487l-1.766,5.786l1.623,0.497l-1.039,3.41c3.446,1.219,6.39,2.883,8.827,4.992
		l-3.784,4.695c-2.079-1.7-4.342-3.041-6.774-4.019l-2.058,6.748c2.627,2.053,4.439,3.686,5.443,4.91s1.643,2.427,1.925,3.615
		c0.282,1.188,0.215,2.447-0.195,3.794c-0.737,2.427-2.212,4.106-4.413,5.043c-2.202,0.937-4.925,1.07-8.172,0.394l-1.428,4.69
		l-1.623-0.497l-1.628,5.335c13.619,4.152,28.078-3.548,32.23-17.162C287.877,150.103,280.177,135.639,266.557,131.487z"/>
	<path style="fill:#FDC00F;" d="M259.574,160.205l-1.736,5.699c2.181,0.282,3.492-0.302,3.932-1.751
		c0.195-0.64,0.102-1.26-0.282-1.864C261.105,161.69,260.465,160.998,259.574,160.205z"/>
</g>
<g>
	<path style="fill:#EB9900;" d="M287.631,164.905c4.808-15.77-4.106-32.507-19.881-37.32l0,0
		c-15.77-4.808-32.512,4.106-37.32,19.876c-4.649,15.252,3.553,31.38,18.36,36.777c6.349-0.307,12.8-0.215,19.61,0.307
		C277.299,181.586,284.692,174.536,287.631,164.905z M251.494,180.874L251.494,180.874c-13.614-4.152-21.315-18.611-17.162-32.225
		c4.152-13.619,18.611-21.315,32.225-17.162l0,0c13.619,4.152,21.32,18.611,17.167,32.225
		C279.572,177.326,265.114,185.027,251.494,180.874z"/>
	<path style="fill:#EB9900;" d="M262.216,140.308c-3.19-0.64-5.868-0.512-8.033,0.389c-2.166,0.901-3.584,2.452-4.26,4.664
		c-0.63,2.058-0.527,3.978,0.307,5.755c0.835,1.777,2.575,3.722,5.233,5.837l1.352,1.06l-2.161,7.091
		c-1.434-0.538-3.011-1.341-4.726-2.417c-1.715-1.075-3.133-2.14-4.26-3.2l-1.843,6.042c2.427,2.089,5.494,3.743,9.19,4.951
		l-1.403,4.598l1.51,0.461l1.623,0.497l1.428-4.69c3.246,0.671,5.97,0.543,8.172-0.394s3.676-2.616,4.413-5.043
		c0.41-1.341,0.476-2.606,0.195-3.794c-0.282-1.188-0.922-2.391-1.925-3.615c-1.004-1.224-2.816-2.857-5.443-4.91l2.058-6.748
		c2.437,0.978,4.695,2.314,6.774,4.019l3.784-4.695c-2.442-2.109-5.381-3.773-8.827-4.992l1.039-3.41l-1.623-0.497l-1.51-0.461
		L262.216,140.308z M261.77,164.152c-0.44,1.449-1.751,2.033-3.932,1.751l1.736-5.699c0.891,0.788,1.531,1.485,1.915,2.084
		C261.873,162.893,261.965,163.512,261.77,164.152z M256.809,147.461c0.394-1.295,1.623-1.787,3.676-1.48l-1.638,5.376
		c-0.896-0.773-1.51-1.449-1.843-2.028C256.671,148.756,256.604,148.132,256.809,147.461z"/>
</g>
</svg>